<?xml version="1.0" encoding="UTF-8"?>
<svg id="Layer_2" data-name="Layer 2" xmlns="http://www.w3.org/2000/svg" viewBox="0 0 463.81 190.15">
  <defs>
    <style>
      .cls-1 {
        fill: #fff;
      }

      .cls-2 {
        fill: #2a286b;
      }

      .cls-3 {
        fill: #dc1e3e;
      }
    </style>
  </defs>
  <g id="Layer_1-2" data-name="Layer 1">
    <g>
      <polygon class="cls-2" points="463.81 87.95 0 87.95 0 139.05 0 190.15 463.81 190.15 463.81 139.05 463.81 87.95"/>
      <path class="cls-3" d="M125.65,57.69h-33.36l-6.36,15.4h-17.04L100.91,1.23h16.42l32.13,71.86h-17.45l-6.36-15.4ZM120.42,45.07l-11.4-27.51-11.4,27.51h22.79Z"/>
      <path class="cls-3" d="M222.36,73.09l-.1-43.12-21.15,35.52h-7.49l-21.04-34.6v42.19h-15.6V1.23h13.76l26.9,44.66L224.1,1.23h13.65l.21,71.86h-15.6Z"/>
      <path class="cls-3" d="M302.69,4.41c4.69,2.12,8.3,5.13,10.83,9.03,2.53,3.9,3.8,8.52,3.8,13.86s-1.27,9.87-3.8,13.81c-2.53,3.94-6.14,6.95-10.83,9.03-4.69,2.09-10.22,3.13-16.58,3.13h-14.47v19.81h-16.63V1.23h31.11c6.36,0,11.89,1.06,16.58,3.18ZM296.58,36.5c2.6-2.16,3.9-5.22,3.9-9.19s-1.3-7.13-3.9-9.29c-2.6-2.16-6.4-3.23-11.4-3.23h-13.55v24.95h13.55c5,0,8.79-1.08,11.4-3.23Z"/>
      <path class="cls-3" d="M336.77,65.8c-5.72-5.68-8.57-13.79-8.57-24.33V1.23h16.63v39.63c0,12.87,5.34,19.3,16.01,19.3,5.2,0,9.17-1.56,11.91-4.67,2.74-3.11,4.11-7.99,4.11-14.63V1.23h16.42v40.24c0,10.54-2.86,18.65-8.57,24.33-5.72,5.68-13.71,8.52-23.97,8.52s-18.26-2.84-23.97-8.52Z"/>
      <path class="cls-3" d="M416.84,72.02c-5.3-1.54-9.56-3.54-12.78-6.01l5.65-12.52c3.08,2.26,6.74,4.07,10.98,5.44,4.24,1.37,8.49,2.05,12.73,2.05,4.72,0,8.21-.7,10.47-2.1,2.26-1.4,3.39-3.27,3.39-5.59,0-1.71-.67-3.13-2-4.26-1.33-1.13-3.05-2.04-5.13-2.72-2.09-.68-4.91-1.44-8.47-2.26-5.48-1.3-9.96-2.6-13.45-3.9-3.49-1.3-6.49-3.39-8.98-6.26-2.5-2.87-3.75-6.71-3.75-11.5,0-4.17,1.13-7.96,3.39-11.34,2.26-3.39,5.66-6.07,10.21-8.06,4.55-1.98,10.11-2.98,16.68-2.98,4.58,0,9.07.55,13.45,1.64,4.38,1.1,8.21,2.67,11.5,4.72l-5.13,12.63c-6.64-3.76-13.28-5.65-19.92-5.65-4.65,0-8.09.75-10.32,2.26-2.22,1.51-3.34,3.49-3.34,5.95s1.28,4.3,3.85,5.49c2.57,1.2,6.48,2.38,11.75,3.54,5.47,1.3,9.96,2.6,13.45,3.9,3.49,1.3,6.48,3.35,8.98,6.16,2.5,2.81,3.75,6.61,3.75,11.4,0,4.11-1.15,7.85-3.44,11.24-2.29,3.39-5.73,6.07-10.32,8.06-4.59,1.98-10.16,2.98-16.73,2.98-5.68,0-11.17-.77-16.48-2.31Z"/>
      <g>
        <path class="cls-1" d="M89.75,116.57h-23.33v-13.75h63.53v13.75h-23.33v59.16h-16.87v-59.16Z"/>
        <path class="cls-1" d="M139.01,102.82h16.87v72.9h-16.87v-72.9Z"/>
        <path class="cls-1" d="M239.51,175.72l-.1-43.74-21.45,36.03h-7.6l-21.35-35.1v42.8h-15.83v-72.9h13.96l27.29,45.3,26.87-45.3h13.85l.21,72.9h-15.83Z"/>
        <path class="cls-1" d="M329.07,162.18v13.54h-56.45v-72.9h55.09v13.54h-38.33v15.83h33.85v13.12h-33.85v16.87h39.68Z"/>
        <path class="cls-1" d="M349.74,174.63c-5.38-1.56-9.7-3.59-12.97-6.09l5.73-12.71c3.12,2.29,6.84,4.13,11.14,5.52,4.3,1.39,8.61,2.08,12.91,2.08,4.79,0,8.33-.71,10.62-2.14,2.29-1.42,3.44-3.31,3.44-5.68,0-1.73-.68-3.18-2.03-4.32s-3.09-2.07-5.21-2.76c-2.12-.69-4.98-1.46-8.59-2.29-5.56-1.32-10.1-2.64-13.64-3.96-3.54-1.32-6.58-3.44-9.11-6.35-2.54-2.92-3.8-6.8-3.8-11.66,0-4.23,1.15-8.07,3.44-11.51,2.29-3.44,5.75-6.16,10.36-8.18,4.62-2.01,10.26-3.02,16.92-3.02,4.65,0,9.2.56,13.64,1.67,4.44,1.11,8.33,2.71,11.66,4.79l-5.21,12.81c-6.74-3.82-13.47-5.73-20.2-5.73-4.72,0-8.21.76-10.47,2.29-2.26,1.53-3.39,3.54-3.39,6.04s1.3,4.36,3.91,5.57c2.6,1.22,6.58,2.41,11.93,3.59,5.55,1.32,10.1,2.64,13.64,3.96,3.54,1.32,6.58,3.4,9.11,6.25,2.53,2.85,3.8,6.7,3.8,11.56,0,4.17-1.16,7.97-3.49,11.4-2.33,3.44-5.82,6.16-10.47,8.18-4.65,2.01-10.31,3.02-16.98,3.02-5.76,0-11.34-.78-16.72-2.34Z"/>
      </g>
      <path class="cls-3" d="M39.58,60.93c-12.99,0-23.52-10.53-23.52-23.52s10.53-23.52,23.52-23.52c6.88,0,13.06,2.95,17.36,7.65.32.34.64.69.95,1.05l10.68-9.86c-3.42-4.11-7.65-7.25-12.68-9.44-5.03-2.19-10.66-3.29-16.89-3.29-7.39,0-14.05,1.59-19.97,4.77-5.92,3.18-10.57,7.6-13.96,13.24C1.69,23.66,0,30.05,0,37.16s1.69,13.5,5.08,19.15c3.39,5.65,8.04,10.06,13.96,13.24,5.92,3.18,12.54,4.77,19.86,4.77,6.23,0,11.87-1.1,16.94-3.28,5.06-2.19,9.31-5.37,12.73-9.55l-10.44-9.64c-4.3,5.52-11.01,9.07-18.55,9.07Z"/>
      <path class="cls-3" d="M41.59,39.44c0,.91-.74,1.65-1.65,1.65s-1.65-.74-1.65-1.65.74-1.65,1.65-1.65,1.65.74,1.65,1.65"/>
      <g>
        <path class="cls-3" d="M42.99,28.44c-.37-.1-.75-.19-1.13-.25-1.13-.2-2.33-.25-3.59-.14-.14.02-.28.03-.43.05-.24.03-.49.07-.72.12-4.46.88-8.42,4.85-9.4,9.24-1.8,8.1,4.23,14.6,11.1,15.2.39.04.78.05,1.17.04.04,0,.09,0,.13,0,.39,0,.78-.03,1.18-.08,2.18-.27,4.36-1.17,6.32-2.82,8.08-6.81,4.43-18.87-4.63-21.35M45.41,50.78c-1.24.66-2.64,1.1-4.07,1.3-.39.05-.79.09-1.18.11-.07,0-.13,0-.2.01-.39.01-.78,0-1.17-.02-2.81-.18-5.5-1.3-7.23-3.53.09.06.17.12.24.22.12.03.11-.17.08-.25-.1-.23-1.07-1.99-1.2-2.16-.33-.42-.97-.61-1.33-1.03-4.19-7.1.88-15.09,7.81-16.75.38-.09.77-.16,1.16-.21,1.14-.15,2.32-.13,3.51.1.38.07.77.17,1.15.28,1.19.36,2.38.94,3.53,1.76,7.14,5.09,6.67,16.04-1.08,20.18"/>
        <path class="cls-3" d="M44.71,44.5l-3.17.36-.23,3.29c.99-.04,2.24-.1,2.64-.38.42-.29,1.07-3.28.76-3.27"/>
        <path class="cls-3" d="M33.38,44.75c-.15-.26-.66-.69-.85-1l-2.51-1.26.76,3.52,3.1,1.35c-.42-.88-.06-1.82-.5-2.61"/>
        <path class="cls-3" d="M38.4,51.05l-.17-2.52h-1.07c-.06,0-.29-.16-.51-.17-1.77-.14-.44,2.7.85,2.7h.91Z"/>
        <path class="cls-3" d="M45.3,44.34l-.67,3.36c2.68-.82,4.34-1.23,4.03-4.53l-1.76.67-.42,2.35c-.61.28-.63-2.39-1.17-1.85"/>
        <path class="cls-3" d="M41.82,40.82l-.04.57.32.94-.39.07-.15,2.13c1.08-.03,2.16-.16,3.23-.35l-.84-.67c-.2-.44.63-.25.25-.67-.49-.56-2.38-.55-2.11-2h-.28Z"/>
        <path class="cls-3" d="M29.6,41.65l.73-3.83-1.65-1.71c-.88,2.18-1.17,4,.92,5.54"/>
        <path class="cls-3" d="M30.82,37.17c.47-.78.91-1.84,1.39-2.64,0-.1-.22-.09-.27-.16-.38-.48-.75-.98-1.17-1.44-.43.71-1.6,1.76-1.6,2.6,0,.65,1.19,2.43,1.65,1.64"/>
        <path class="cls-3" d="M34.74,49.1c-.26-.31-.35-1.02-.69-1.32l-2.85-1.1c-.16.16,1.36,2.7,1.68,2.93.36.27,2.96,1.1,3.19.93-.12-.92-.97-1.02-1.33-1.44"/>
        <path class="cls-3" d="M44.33,48.07l-1.38,2.65c2.28-.5,4.17-1.48,4.87-3.86-1.1.57-2.26,1.03-3.49,1.21"/>
        <path class="cls-3" d="M41.28,48.55l-.17,2.42,1.3-.12,1.38-2.56c-.84.07-1.67.23-2.51.27"/>
        <path class="cls-3" d="M34.53,38.44s.19-.62.21-.71c.02-.12.25-.37-.11-.44-.41-.09-.56.34-.88.46-1.79.68-1.8-1.04-.12-1.29l.06-.61.68-.08c-.22-.35-1.76-.92-2.01-.76l-1.34,2.78c.67-.03,1.17.57,1.77.66.24.04,1.67.05,1.73,0"/>
        <path class="cls-3" d="M35.78,35.61c.74-.61.13-1.89,1.12-2.02-.36-.38-1.59-1.22-2.06-1.15-.43.07-2.01,1.64-1.98,2.06.7.68.92.25,1.69.1l-.33.42c.67.25.41-1.31,1.34-1.26l-.5,1.84h.73Z"/>
        <path class="cls-3" d="M36.41,47.21l.06.67.94.16.07-1.68.57-.33-.07-.95h-.25c-.63.69-.27,2.06-1.32,2.13"/>
        <path class="cls-3" d="M38.19,48c-.04.06-.08.13-.11.2h.12v-.2Z"/>
        <path class="cls-3" d="M28.84,41.57c-.35-.42-.58-.94-1-1.26.19,2.17.44,4.23,2.51,5.37-.43-.74-.37-2.98-.72-3.47-.1-.14-.56-.36-.79-.63"/>
        <path class="cls-3" d="M32.45,34.26c.43-.52,2.1-1.81,1.55-2.47-.49-.6-1.52-.04-2.03.32-1.23.86-.27,1.37.47,2.15"/>
        <path class="cls-3" d="M37.07,39.3c-.21.26-1.35-1.31-1.18-1.68-.38.03-.06.91-.16,1.01-.07.07-.86-.16-1,.26-.09.46.9.97,1.26,1.08.57.18-.25-.53.33-.51.46.02.88.22,1.31.37l-.05-.65-.17-.13.14-.23-.04-.5c-.23.32-.61.45-.45.99"/>
        <path class="cls-3" d="M35.73,32.41l1.42.6-.12-1.74c-.52.07-.91.47-1.3,1.14"/>
        <path class="cls-3" d="M36.87,29.08l.03-.02s-.02,0-.03,0c-1.25.19-2.71.81-3.78,1.47-.21.13-1.66,1.11-1.39,1.38l5.17-2.84Z"/>
        <path class="cls-3" d="M49.83,44.34c.39.08.27-.05.38-.22.43-.68.44-1.54.63-2.3-1.93-.56-1.1,1.37-1.01,2.51"/>
        <path class="cls-3" d="M48.41,46.53l-1.1,2.17c1.05-.96,1.84-2.11,2.52-3.36-.22-.21-1.22,1-1.42,1.18"/>
        <path class="cls-3" d="M36.4,35.27l.59-.67.25.84s.05-.03.07-.05l-.08-1.13c-.14-.09-.99.64-.83,1.01"/>
        <path class="cls-3" d="M44.12,31.41c-.59.02-1.07-.37-1.6-.51t0,0l-.04.5,1.08.83c.27.11.62-.76.56-.82"/>
        <path class="cls-3" d="M37.07,51.22l1.27.66s.06,0,.12,0l-.04-.51-1.35-.16Z"/>
        <path class="cls-3" d="M44.72,31.39c.39-.14,1.07-.03,1.25-.48l-1.68-.5.43.98Z"/>
        <path class="cls-3" d="M49.64,44.72l-.4-.72c-.35-.07-.23.14-.3.37-.12.42-.2.88-.29,1.31l.99-.96Z"/>
        <path class="cls-3" d="M43.11,30.07c-.11-.16-.29-.31-.51-.43l-.03.44c.18.02.36,0,.54,0"/>
        <path class="cls-3" d="M43.95,30.82l-.2-.39-1.2-.14-.02.35c.35.14,1.53.66,1.41.19"/>
        <path class="cls-3" d="M44.79,30.23c-.58-.48-1.38-.81-2.16-1.02l-.02.21,1.13.6,1.04.22Z"/>
        <path class="cls-3" d="M31.2,42.66c.08.24.66.43.9.53.31.12.61.3.95.31-.28-.87-1.08-1.02-1.84-.84"/>
      </g>
      <polygon class="cls-3" points="37.34 21.78 42.58 21.86 39.98 51.39 37.34 21.78"/>
      <path class="cls-3" d="M29.49,29.02c2.21-3.17,6.04-5.27,10.41-5.27s8.21,2.1,10.41,5.27h5.54c-2.62-5.77-8.78-9.82-15.96-9.82s-13.34,4.05-15.96,9.82h5.54Z"/>
    </g>
  </g>
</svg>