<?xml version="1.0" encoding="UTF-8"?>
<svg id="Layer_2" data-name="Layer 2" xmlns="http://www.w3.org/2000/svg" viewBox="0 0 139.41 139.41">
  <defs>
    <style>
      .cls-1 {
        fill: #fff;
      }

      .cls-2 {
        fill: #2a286b;
      }
    </style>
  </defs>
  <g id="Layer_1-2" data-name="Layer 1">
    <g>
      <circle class="cls-2" cx="69.7" cy="69.7" r="69.7"/>
      <g>
        <path class="cls-1" d="M73.55,99.72c-16.41,0-29.71-13.3-29.71-29.71s13.3-29.71,29.71-29.71c8.68,0,16.49,3.73,21.93,9.67.41.43.81.87,1.21,1.32l13.48-12.45c-4.32-5.19-9.66-9.16-16.01-11.93-6.35-2.76-13.46-4.15-21.33-4.15-9.33,0-17.74,2.01-25.21,6.03-7.48,4.02-13.35,9.59-17.63,16.72-4.28,7.13-6.42,15.19-6.42,24.18s2.14,17.05,6.42,24.18c4.28,7.13,10.15,12.7,17.63,16.72,7.47,4.02,15.84,6.03,25.09,6.03,7.86,0,14.99-1.38,21.39-4.15,6.39-2.77,11.75-6.78,16.08-12.06l-13.18-12.17c-5.44,6.97-13.91,11.46-23.43,11.46Z"/>
        <path class="cls-1" d="M76.09,72.58c0,1.15-.93,2.09-2.09,2.09s-2.09-.93-2.09-2.09.93-2.09,2.09-2.09,2.09.93,2.09,2.09"/>
        <g>
          <path class="cls-1" d="M77.85,58.69c-.47-.13-.94-.24-1.43-.32-1.43-.25-2.94-.32-4.53-.18-.18.02-.36.04-.54.06-.3.03-.61.08-.91.15-5.64,1.11-10.64,6.12-11.87,11.67-2.27,10.23,5.35,18.43,14.02,19.2.49.04.98.06,1.48.05.05,0,.11,0,.17,0,.5,0,.99-.04,1.49-.1,2.75-.34,5.5-1.48,7.98-3.56,10.2-8.6,5.59-23.83-5.85-26.96M80.91,86.9c-1.56.84-3.33,1.39-5.15,1.64-.49.07-.99.12-1.49.14-.08,0-.17.01-.26.02-.49.02-.98,0-1.48-.02-3.54-.22-6.95-1.65-9.13-4.45.11.07.22.15.3.27.16.03.14-.22.1-.31-.12-.29-1.35-2.52-1.51-2.73-.42-.54-1.22-.76-1.69-1.31-5.29-8.97,1.11-19.05,9.86-21.15.48-.11.97-.21,1.46-.27,1.44-.19,2.93-.16,4.43.12.48.09.97.21,1.45.36,1.5.46,3,1.18,4.46,2.22,9.02,6.42,8.43,20.25-1.36,25.48"/>
          <path class="cls-1" d="M80.02,78.97l-4,.46-.29,4.16c1.25-.04,2.82-.13,3.34-.48.54-.37,1.35-4.15.96-4.13"/>
          <path class="cls-1" d="M65.72,79.29c-.18-.33-.83-.88-1.07-1.26l-3.17-1.6.96,4.44,3.91,1.71c-.53-1.11-.07-2.3-.63-3.29"/>
          <path class="cls-1" d="M72.06,87.25l-.22-3.18h-1.35c-.08,0-.37-.2-.64-.22-2.23-.18-.56,3.4,1.07,3.4h1.15Z"/>
          <path class="cls-1" d="M80.77,78.77l-.85,4.24c3.38-1.03,5.48-1.56,5.08-5.72l-2.23.84-.53,2.97c-.78.36-.8-3.02-1.48-2.33"/>
          <path class="cls-1" d="M76.38,74.32l-.05.72.41,1.18-.5.09-.19,2.69c1.37-.03,2.73-.21,4.08-.45l-1.06-.85c-.26-.55.79-.32.32-.85-.62-.7-3-.69-2.66-2.53h-.35Z"/>
          <path class="cls-1" d="M60.94,75.37l.92-4.84-2.09-2.16c-1.11,2.76-1.47,5.05,1.16,6.99"/>
          <path class="cls-1" d="M62.49,69.71c.59-.99,1.15-2.32,1.75-3.34,0-.13-.27-.12-.34-.2-.48-.61-.95-1.24-1.47-1.82-.55.9-2.03,2.22-2.03,3.28,0,.82,1.5,3.07,2.09,2.08"/>
          <path class="cls-1" d="M67.43,84.79c-.33-.4-.44-1.29-.88-1.67l-3.6-1.38c-.2.2,1.72,3.41,2.12,3.71.46.34,3.73,1.39,4.02,1.17-.15-1.16-1.23-1.29-1.67-1.82"/>
          <path class="cls-1" d="M79.54,83.48l-1.74,3.34c2.88-.63,5.26-1.87,6.15-4.87-1.38.72-2.85,1.3-4.4,1.53"/>
          <path class="cls-1" d="M75.69,84.09l-.22,3.05,1.64-.16,1.74-3.24c-1.06.09-2.11.29-3.17.34"/>
          <path class="cls-1" d="M67.17,71.32s.24-.78.27-.9c.03-.16.31-.46-.14-.56-.52-.11-.71.43-1.11.58-2.25.86-2.28-1.31-.15-1.63l.08-.76.86-.1c-.27-.45-2.22-1.17-2.54-.96l-1.7,3.51c.84-.04,1.47.72,2.24.84.31.05,2.11.06,2.19-.01"/>
          <path class="cls-1" d="M68.75,67.75c.93-.77.16-2.38,1.41-2.56-.45-.48-2.01-1.54-2.6-1.45-.54.08-2.54,2.07-2.5,2.6.89.86,1.17.32,2.13.12l-.42.53c.85.32.51-1.66,1.69-1.59l-.64,2.33h.92Z"/>
          <path class="cls-1" d="M69.55,82.39l.07.85,1.18.2.09-2.12.72-.41-.08-1.2h-.31c-.8.87-.34,2.6-1.67,2.69"/>
          <path class="cls-1" d="M71.79,83.4c-.05.08-.1.16-.14.25h.16l-.02-.25Z"/>
          <path class="cls-1" d="M59.98,75.27c-.44-.53-.73-1.19-1.26-1.59.24,2.73.55,5.34,3.18,6.78-.54-.94-.47-3.77-.91-4.39-.12-.17-.71-.46-1-.8"/>
          <path class="cls-1" d="M64.55,66.04c.54-.65,2.65-2.28,1.96-3.12-.62-.75-1.92-.05-2.56.4-1.55,1.09-.34,1.74.6,2.72"/>
          <path class="cls-1" d="M70.38,72.41c-.27.32-1.71-1.65-1.49-2.12-.48.03-.07,1.15-.21,1.27-.09.08-1.09-.2-1.27.33-.11.57,1.14,1.22,1.59,1.36.72.22-.31-.66.42-.64.58.02,1.11.28,1.65.47l-.06-.83-.21-.17.18-.29-.04-.64c-.29.4-.77.57-.57,1.25"/>
          <path class="cls-1" d="M68.68,63.71l1.79.76-.15-2.2c-.65.09-1.15.6-1.64,1.44"/>
          <path class="cls-1" d="M70.13,59.49l.03-.02s-.03,0-.04,0c-1.57.24-3.42,1.02-4.77,1.86-.26.17-2.09,1.41-1.76,1.74l6.53-3.58Z"/>
          <path class="cls-1" d="M86.49,78.77c.49.1.34-.06.48-.27.55-.86.55-1.95.8-2.9-2.44-.71-1.4,1.73-1.27,3.17"/>
          <path class="cls-1" d="M84.7,81.54l-1.39,2.74c1.33-1.21,2.33-2.67,3.18-4.24-.28-.26-1.54,1.27-1.79,1.5"/>
          <path class="cls-1" d="M69.53,67.31l.74-.84.32,1.06s.06-.04.09-.06l-.1-1.43c-.17-.12-1.25.8-1.05,1.27"/>
          <path class="cls-1" d="M79.28,62.44c-.74.02-1.35-.46-2.02-.64t0,0l-.04.64,1.36,1.04c.34.14.78-.95.71-1.03"/>
          <path class="cls-1" d="M70.38,87.46l1.6.84s.07,0,.15,0l-.04-.64-1.71-.2Z"/>
          <path class="cls-1" d="M80.04,62.41c.49-.18,1.35-.04,1.58-.61l-2.12-.64.54,1.24Z"/>
          <path class="cls-1" d="M86.26,79.25l-.51-.91c-.44-.09-.29.18-.37.46-.15.53-.25,1.11-.36,1.65l1.25-1.21Z"/>
          <path class="cls-1" d="M78.01,60.74c-.13-.2-.37-.39-.64-.55l-.04.56c.23.02.46.01.68,0"/>
          <path class="cls-1" d="M79.06,61.7l-.25-.49-1.51-.18-.03.44c.44.18,1.93.83,1.79.24"/>
          <path class="cls-1" d="M80.13,60.95c-.73-.61-1.75-1.03-2.73-1.29l-.02.26,1.43.75,1.31.28Z"/>
          <path class="cls-1" d="M62.96,76.65c.11.31.83.55,1.13.67.39.16.77.38,1.2.39-.35-1.09-1.36-1.29-2.33-1.06"/>
        </g>
        <polygon class="cls-1" points="70.72 50.28 77.33 50.38 74.05 87.67 70.72 50.28"/>
        <path class="cls-1" d="M60.8,59.42c2.79-4,7.63-6.66,13.15-6.66s10.37,2.66,13.15,6.66h7c-3.31-7.29-11.08-12.4-20.15-12.4s-16.85,5.12-20.15,12.4h7Z"/>
      </g>
    </g>
  </g>
</svg>